<svg width="512" height="512" viewBox="0 0 512 512" xmlns="http://www.w3.org/2000/svg">

  <!-- Pin externo -->
  <path d="M256 50C170 50 110 110 110 190c0 100 146 272 146 272s146-172 146-272c0-80-60-140-146-140z" fill="none" stroke="#E5E1D8" stroke-width="18" stroke-linecap="round" stroke-linejoin="round"></path>

  <!-- Corpo calendário -->
  <rect x="176" y="150" width="160" height="130" rx="18" fill="#9FB0B8"></rect>

  <!-- Parte inferior (triângulo) -->
  <polygon points="256,280 200,340 312,340" fill="#E5E1D8"></polygon>

  <!-- Suportes -->
  <rect x="205" y="130" width="18" height="28" fill="#E5E1D8"></rect>
  <rect x="289" y="130" width="18" height="28" fill="#E5E1D8"></rect>

  <!-- Grid -->
  <g fill="#E5E1D8">
    <rect x="200" y="170" width="18" height="18"></rect>
    <rect x="228" y="170" width="18" height="18"></rect>
    <rect x="256" y="170" width="18" height="18"></rect>
    <rect x="284" y="170" width="18" height="18"></rect>

    <rect x="200" y="198" width="18" height="18"></rect>
    <rect x="228" y="198" width="18" height="18"></rect>
    <rect x="256" y="198" width="18" height="18"></rect>
    <rect x="284" y="198" width="18" height="18"></rect>

    <rect x="200" y="226" width="18" height="18"></rect>
    <rect x="228" y="226" width="18" height="18"></rect>
    <rect x="256" y="226" width="18" height="18"></rect>
  </g>

  <!-- Check -->
  <path d="M255 210 l12 10 l22 -26" fill="none" stroke="#E5E1D8" stroke-width="6" stroke-linecap="round" stroke-linejoin="round"></path>

</svg>